<?xml version="1.0" standalone="no"?>
<!DOCTYPE svg PUBLIC "-//W3C//DTD SVG 20010904//EN"
 "http://www.w3.org/TR/2001/REC-SVG-20010904/DTD/svg10.dtd">
<svg version="1.0" xmlns="http://www.w3.org/2000/svg"
 width="232.000000pt" height="148.000000pt" viewBox="0 0 232.000000 148.000000"
 preserveAspectRatio="xMidYMid meet">

<g transform="translate(0.000000,148.000000) scale(0.100000,-0.100000)"
fill="#000000" stroke="none">
<path d="M717 1393 c-6 -9 -321 -698 -348 -761 l-19 -43 62 3 62 3 51 120 51
120 191 3 191 2 52 -125 53 -125 58 0 c33 0 59 2 59 4 0 25 -28 69 -48 77 -22
8 -24 12 -12 20 12 8 11 9 -5 5 -36 -10 -48 8 -22 32 l24 22 -35 68 c-24 48
-38 66 -50 64 -10 -2 -44 -6 -77 -8 -52 -5 -67 -2 -115 23 -30 15 -54 33 -53
39 1 5 -8 10 -20 11 -12 0 -50 1 -84 2 l-62 1 24 53 c12 28 44 103 70 165 26
61 50 112 53 112 4 0 20 -35 36 -78 16 -42 33 -82 37 -88 5 -6 19 -40 33 -75
23 -62 25 -64 62 -67 22 -1 45 2 53 7 15 10 11 20 -135 339 l-37 82 -48 0
c-26 0 -50 -3 -52 -7z"/>
<path d="M1318 1213 c-5 -302 1 -473 15 -473 6 0 32 11 57 24 42 21 45 25 48
68 2 37 8 50 29 63 l26 17 -6 -38 c-4 -27 -3 -34 3 -24 5 8 10 25 10 37 0 25
65 103 84 103 7 0 90 -90 185 -200 l173 -200 71 0 70 0 -20 23 c-11 12 -93
108 -183 212 -90 105 -174 201 -186 215 l-24 26 198 164 197 165 -78 3 -78 3
-147 -123 c-205 -173 -310 -258 -316 -258 -3 0 -7 84 -8 188 l-3 187 -57 3
-57 3 -3 -188z"/>
<path d="M1145 1250 c-16 -16 -27 -31 -24 -33 2 -2 17 11 32 30 36 41 31 43
-8 3z"/>
<path d="M716 1140 c-19 -47 -19 -50 -6 -50 6 0 10 9 10 21 0 11 5 29 11 41 6
11 9 22 6 24 -2 3 -12 -13 -21 -36z"/>
<path d="M700 1069 c0 -5 5 -7 10 -4 6 3 10 8 10 11 0 2 -4 4 -10 4 -5 0 -10
-5 -10 -11z"/>
<path d="M1505 719 c-48 -37 -51 -39 -39 -39 5 0 27 16 49 35 49 42 44 44 -10
4z"/>
<path d="M1430 665 c-7 -9 -15 -13 -18 -10 -3 3 -11 0 -19 -7 -7 -6 -16 -8
-20 -5 -3 4 -13 2 -20 -5 -11 -9 -17 -9 -24 3 -6 10 -9 5 -9 -19 l0 -33 58 3
57 3 6 43 c3 23 4 42 3 42 -1 0 -7 -7 -14 -15z"/>
<path d="M1160 375 c0 -107 -1 -198 -2 -202 -2 -5 9 -9 25 -11 l27 -3 0 73 c1
90 13 148 36 165 27 19 88 16 107 -5 14 -15 17 -40 17 -125 l0 -107 30 0 30 0
0 109 c0 122 -8 152 -44 176 -32 21 -110 21 -141 1 -13 -9 -27 -16 -30 -16 -3
0 -5 32 -5 70 0 68 -1 70 -25 70 l-25 0 0 -195z"/>
<path d="M358 544 c-22 -12 -28 -22 -28 -49 0 -28 -4 -35 -20 -35 -15 0 -20
-7 -20 -25 0 -18 5 -25 20 -25 19 0 20 -7 20 -108 0 -127 9 -142 78 -142 38 0
42 2 42 24 0 19 -6 25 -27 28 l-28 3 -3 98 -3 97 31 0 c25 0 30 4 30 25 0 21
-5 25 -29 25 -29 0 -30 2 -33 49 l-3 49 -27 -14z"/>
<path d="M600 460 c-77 -13 -120 -69 -120 -157 0 -92 58 -143 165 -143 31 0
69 7 85 15 27 14 60 51 60 67 0 16 -53 7 -77 -12 -38 -30 -103 -27 -142 6 -56
47 -45 53 96 56 123 3 126 4 128 26 3 34 -30 98 -60 118 -33 21 -90 32 -135
24z m100 -65 c18 -9 30 -24 30 -35 0 -19 -7 -20 -95 -20 -105 0 -119 10 -69
49 32 25 92 28 134 6z"/>
<path d="M943 459 c-75 -15 -113 -68 -113 -156 0 -89 55 -143 147 -143 57 0
105 26 127 68 27 51 -19 60 -64 12 -37 -39 -89 -41 -125 -5 -36 35 -36 115 0
150 34 34 96 35 122 1 24 -30 74 -26 66 4 -13 50 -92 84 -160 69z"/>
<path d="M1640 462 c-13 -2 -33 -10 -44 -18 -26 -18 -37 -18 -30 1 5 11 -1 15
-25 15 l-31 0 0 -151 0 -150 28 3 c27 3 27 4 29 83 1 44 2 90 2 103 1 35 36
62 80 62 64 0 71 -15 71 -141 l0 -109 30 0 30 0 0 119 c0 110 -2 122 -22 146
-24 27 -75 43 -118 37z"/>
<path d="M1900 444 c-66 -41 -88 -131 -51 -207 26 -53 67 -77 133 -77 90 0
148 59 148 153 0 95 -53 147 -150 147 -32 0 -65 -7 -80 -16z m145 -59 c20 -19
25 -34 25 -75 0 -66 -30 -100 -87 -100 -42 1 -63 13 -81 47 -24 44 -11 111 27
140 28 22 89 16 116 -12z"/>
</g>
</svg>
